<?xml version="1.0" encoding="UTF-8"?>
<!DOCTYPE svg PUBLIC "-//W3C//DTD SVG 1.1//EN" "http://www.w3.org/Graphics/SVG/1.1/DTD/svg11.dtd">
<svg xmlns="http://www.w3.org/2000/svg" version="1.1" width="180px" height="180px" style="shape-rendering:geometricPrecision; text-rendering:geometricPrecision; image-rendering:optimizeQuality; fill-rule:evenodd; clip-rule:evenodd" xmlns:xlink="http://www.w3.org/1999/xlink">
<g><path style="opacity:0.969" fill="#161426" d="M 71.5,-0.5 C 83.5,-0.5 95.5,-0.5 107.5,-0.5C 145.833,9.16667 169.833,33.1667 179.5,71.5C 179.5,83.5 179.5,95.5 179.5,107.5C 169.833,145.833 145.833,169.833 107.5,179.5C 95.5,179.5 83.5,179.5 71.5,179.5C 33.1667,169.833 9.16667,145.833 -0.5,107.5C -0.5,95.5 -0.5,83.5 -0.5,71.5C 9.16667,33.1667 33.1667,9.16667 71.5,-0.5 Z"/></g>
<g><path style="opacity:1" fill="#c09532" d="M 99.5,14.5 C 90.8,14.2895 82.1333,14.6228 73.5,15.5C 74.2625,14.7321 75.2625,14.2321 76.5,14C 84.3446,13.1777 92.0113,13.3443 99.5,14.5 Z"/></g>
<g><path style="opacity:1" fill="#f5be36" d="M 99.5,14.5 C 134.753,20.9177 156.586,41.5844 165,76.5C 168.269,119.491 149.769,148.324 109.5,163C 73.1049,170.709 44.6049,159.209 24,128.5C 5.1216,91.1719 10.9549,58.3386 41.5,30C 50.885,22.3703 61.5516,17.5369 73.5,15.5C 82.1333,14.6228 90.8,14.2895 99.5,14.5 Z"/></g>
<g><path style="opacity:1" fill="#181626" d="M 98.5,31.5 C 97.0762,33.5145 96.4095,35.8478 96.5,38.5C 93.9861,44.102 95.6528,47.7686 101.5,49.5C 113.518,49.921 125.518,49.921 137.5,49.5C 132.833,55.8333 128.167,62.1667 123.5,68.5C 122.005,68.9887 120.671,69.6554 119.5,70.5C 111.036,72.7324 103.036,71.7324 95.5,67.5C 93.3128,71.3873 91.3128,75.3873 89.5,79.5C 87.6872,75.3873 85.6872,71.3873 83.5,67.5C 75.9187,71.5775 67.9187,72.5775 59.5,70.5C 58.3285,69.6554 56.9952,68.9887 55.5,68.5C 50.8579,62.185 46.1912,55.8517 41.5,49.5C 42.5,49.1667 43.5,48.8333 44.5,48.5C 55.1327,49.9025 65.7994,50.4025 76.5,50C 83.2278,48.5256 85.2278,44.6922 82.5,38.5C 82.5905,35.8478 81.9238,33.5145 80.5,31.5C 80.5,30.5 80.5,29.5 80.5,28.5C 85.8437,28.334 91.1771,28.5006 96.5,29C 97.756,29.4169 98.4226,30.2502 98.5,31.5 Z"/></g>
<g><path style="opacity:1" fill="#ae8831" d="M 80.5,31.5 C 81.9238,33.5145 82.5905,35.8478 82.5,38.5C 81.0762,36.4855 80.4095,34.1522 80.5,31.5 Z"/></g>
<g><path style="opacity:1" fill="#ae8831" d="M 98.5,31.5 C 98.5905,34.1522 97.9238,36.4855 96.5,38.5C 96.4095,35.8478 97.0762,33.5145 98.5,31.5 Z"/></g>
<g><path style="opacity:1" fill="#daaa34" d="M 137.5,49.5 C 125.518,49.921 113.518,49.921 101.5,49.5C 111.338,48.9719 121.171,48.3052 131,47.5C 133.5,47.8333 136,48.1667 138.5,48.5C 138.376,49.1067 138.043,49.44 137.5,49.5 Z"/></g>
<g><path style="opacity:1" fill="#181626" d="M 48.5,69.5 C 51.3896,70.2448 54.3896,70.9115 57.5,71.5C 61.1556,76.1338 64.3223,81.1338 67,86.5C 67.498,89.4816 67.6646,92.4816 67.5,95.5C 71.5046,94.9277 75.5046,94.261 79.5,93.5C 80.1667,93.8333 80.8333,94.1667 81.5,94.5C 78.712,97.9101 76.0454,101.41 73.5,105C 81.3458,110.147 86.6791,117.314 89.5,126.5C 91.9956,121.509 94.4956,116.509 97,111.5C 99.8333,109.333 102.667,107.167 105.5,105C 102.955,101.41 100.288,97.9101 97.5,94.5C 98,94.1667 98.5,93.8333 99,93.5C 103.133,94.3999 107.3,95.0666 111.5,95.5C 111.335,92.4816 111.502,89.4816 112,86.5C 114.678,81.1338 117.844,76.1338 121.5,71.5C 123.626,70.9518 125.626,70.2852 127.5,69.5C 134.818,68.5008 142.151,68.0008 149.5,68C 143,77.1667 136.5,86.3333 130,95.5C 129.393,99.5369 129.56,103.537 130.5,107.5C 135.767,108.399 140.767,110.066 145.5,112.5C 143.187,117.793 140.354,122.793 137,127.5C 133.5,124 130,120.5 126.5,117C 122.671,116.242 119.338,117.242 116.5,120C 110.767,130.186 105.6,140.686 101,151.5C 97.1667,143.833 93.3333,136.167 89.5,128.5C 85.838,135.808 82.1714,143.142 78.5,150.5C 73.3635,140.449 68.0302,130.449 62.5,120.5C 59.739,117.635 56.4056,116.469 52.5,117C 49.318,120.349 45.9846,123.516 42.5,126.5C 37.801,122.131 34.801,116.798 33.5,110.5C 38.3096,109.905 42.9762,108.738 47.5,107C 49.9488,102.611 50.1155,98.1114 48,93.5C 41.711,85.0885 35.5443,76.5885 29.5,68C 35.7709,68.7078 42.1043,69.2078 48.5,69.5 Z"/></g>
<g><path style="opacity:1" fill="#604c2b" d="M 55.5,68.5 C 56.9952,68.9887 58.3285,69.6554 59.5,70.5C 58.5084,70.3284 57.8417,70.6618 57.5,71.5C 54.3896,70.9115 51.3896,70.2448 48.5,69.5C 51.0593,69.8016 53.3926,69.4682 55.5,68.5 Z"/></g>
<g><path style="opacity:1" fill="#f4bd36" d="M 119.5,70.5 C 120.492,70.3284 121.158,70.6618 121.5,71.5C 117.844,76.1338 114.678,81.1338 112,86.5C 111.502,89.4816 111.335,92.4816 111.5,95.5C 107.3,95.0666 103.133,94.3999 99,93.5C 98.5,93.8333 98,94.1667 97.5,94.5C 100.288,97.9101 102.955,101.41 105.5,105C 102.667,107.167 99.8333,109.333 97,111.5C 94.4956,116.509 91.9956,121.509 89.5,126.5C 86.6791,117.314 81.3458,110.147 73.5,105C 76.0454,101.41 78.712,97.9101 81.5,94.5C 80.8333,94.1667 80.1667,93.8333 79.5,93.5C 75.5046,94.261 71.5046,94.9277 67.5,95.5C 67.6646,92.4816 67.498,89.4816 67,86.5C 64.3223,81.1338 61.1556,76.1338 57.5,71.5C 57.8417,70.6618 58.5084,70.3284 59.5,70.5C 67.9187,72.5775 75.9187,71.5775 83.5,67.5C 85.6872,71.3873 87.6872,75.3873 89.5,79.5C 91.3128,75.3873 93.3128,71.3873 95.5,67.5C 103.036,71.7324 111.036,72.7324 119.5,70.5 Z"/></g>
<g><path style="opacity:1" fill="#6c552c" d="M 123.5,68.5 C 124.568,69.4345 125.901,69.7678 127.5,69.5C 125.626,70.2852 123.626,70.9518 121.5,71.5C 121.158,70.6618 120.492,70.3284 119.5,70.5C 120.671,69.6554 122.005,68.9887 123.5,68.5 Z"/></g>
</svg>
